<?xml version="1.0" standalone="no"?><!DOCTYPE svg PUBLIC "-//W3C//DTD SVG 1.1//EN" "http://www.w3.org/Graphics/SVG/1.1/DTD/svg11.dtd"><svg t="1679887480922" class="icon" viewBox="0 0 1024 1024" version="1.1" xmlns="http://www.w3.org/2000/svg" p-id="964" xmlns:xlink="http://www.w3.org/1999/xlink" width="200" height="200"><path d="M86.893714 141.750857h667.355429V329.142857H841.142857V91.428571a36.571429 36.571429 0 0 0-36.571428-36.571428H36.571429a36.571429 36.571429 0 0 0-36.571429 36.571428v841.142858a36.571429 36.571429 0 0 0 36.571429 36.571428H658.285714v-86.893714H86.820571V141.750857zM400.310857 219.428571h-69.193143c-3.949714 0-7.314286 2.486857-8.777143 6.144l-145.188571 420.571429A9.142857 9.142857 0 0 0 185.782857 658.285714h62.902857c3.949714 0 7.314286-2.486857 8.777143-6.144l37.302857-108.178285h224.256L409.161143 225.645714A9.654857 9.654857 0 0 0 400.384 219.428571z m14.189714 260.608H316.781714L365.714286 338.432l48.786285 141.458286z m582.070858 50.249143H841.142857V424.009143a9.142857 9.142857 0 0 0-9.142857-9.142857H768a9.142857 9.142857 0 0 0-9.142857 9.142857V530.285714H603.428571a27.355429 27.355429 0 0 0-27.428571 27.428572v201.142857c0 15.213714 12.214857 27.428571 27.428571 27.428571h155.428572v173.714286c0 5.046857 4.096 9.142857 9.142857 9.142857h64a9.142857 9.142857 0 0 0 9.142857-9.142857V786.285714h155.428572a27.355429 27.355429 0 0 0 27.428571-27.428571v-201.142857a27.355429 27.355429 0 0 0-27.428571-27.428572z m-237.714286 173.714286H658.285714v-91.428571h100.571429v91.428571z m182.857143 0H841.142857v-91.428571h100.571429v91.428571z" p-id="965"></path></svg>